Patient4_TMGait_0pt4_01_right_12_EMG.mot
version=1
nRows=13
nColumns=33
inDegrees=no
endheader
time	1LAddLong	2LGlutMax	3LGlutMed	4LIliopsoas	5LSemiMemb	6LBicFemLong	7LRecFem	8LVastMed	9LVastLat	10LGasMed	11LTibAnt	12lTibPost	13LPeroneusLong	14LSol	15LExtDigLong	16LFlexDigLong	17RAddLong	18RGlutMax	19RGlutMed	20RIliopsoas	21RSemiMemb	22RBicFemLong	23RRecFem	24RVastMed	25RVastLat	26RGasMed	27RTibAnt	28RTibPost	29RPeroneusLong	30RSol	31RExtDigLong	32RFlexDigLong
16.783	0.00824	0.026855	0.006561	0.00885	0.004883	-0.00885	0.15595	0.021362	0.00061	-0.052948	0.077972	0.01236	0.14145	-0.001678	-0.13321	0.000153	-0.10925	-0.043182	0.085602	-0.003357	-0.20065	0.38986	-0.1181	-0.029907	0.005493	-0.014648	0.070038	-0.010986	-0.1828	-0.084534	-0.004883	-0.001373
16.784	0.008087	0.063019	0.019073	0.023346	0.018616	-0.052795	-0.080566	0.03067	-0.022583	-0.017395	0.12482	0.01236	-0.052032	-0.021515	-0.10361	-0.02182	-0.17914	-0.049744	0.24735	0.020142	0.16464	0.37201	-0.11368	0.00473	0.027008	-0.023956	0.0737	-0.003357	-0.3035	-0.059662	-0.005188	-0.003662
16.785	0.035553	0.075378	0.059814	0.007477	0.020447	-0.055237	-0.19241	0.007782	0.10407	0.015564	0.093994	0.016479	-0.1683	-0.13016	-0.26825	-0.01709	-0.20783	-0.05127	-0.15518	0.012054	0.5278	0.34012	-0.076141	0.008698	0.032043	-0.019531	0.22247	-0.008698	-0.33646	-0.040741	0.000916	-0.003357
16.786	0.010681	0.057373	0.005798	-0.003967	0.011749	-0.016327	-0.06958	-0.019379	0.14542	0.010071	-0.11734	0.016022	-0.19913	-0.10162	-0.19989	-0.011902	-0.1709	-0.040436	-0.045929	-0.020294	0.18188	0.23911	-0.059967	0.037842	0.003967	-0.014648	0.29877	-0.005951	0.088501	0.020599	-0.003052	-0.000916
16.787	0.003815	0.077972	-0.010681	0.002899	0.003052	-0.016022	-0.074005	0.014648	0.15976	0.025482	0.14191	0.013885	-0.093231	-0.015259	0.077972	-0.001373	-0.11566	0.00061	0.20584	-0.039673	0.047302	0.20081	-0.044098	-0.076752	-0.016937	-0.031128	0.42618	-0.009155	0.19928	0.043793	0.001984	-0.004578
16.788	0.010529	0.083466	0.016479	0.009308	0.00946	-0.018921	-0.11749	-0.045776	0.21042	0.059204	0.20187	0.013428	-0.054932	0.007324	0.15091	-0.012512	-0.080261	-0.015717	0.24567	-0.019379	0.046844	0.19257	-0.041962	-0.096893	-0.006714	-0.02594	0.14099	-0.011902	0.20096	-0.001678	0.001373	-0.000153
16.789	0.006714	0.059967	-0.005493	-0.021667	0.000458	-0.007782	-0.013123	-0.023499	0.12695	0.00351	-0.079498	0.026398	0.001373	0.040131	-0.019989	-0.018311	-0.056152	-0.052795	0.54855	-0.011139	0.076599	0.1506	-0.033875	-0.058746	-0.006561	-0.022583	0.16449	-0.003967	0.098114	-0.057831	0.012817	-0.000305
16.79	-0.012665	0.074158	-0.13458	-0.003815	0.005188	0.027466	0.06958	0.016479	0.10544	0.005188	-0.11292	0.015259	0.19409	0.065613	0.94147	-0.018616	-0.038147	-0.051727	0.68924	-0.015106	0.061493	0.10834	-0.057983	-0.045013	-0.001984	-0.025635	-0.24643	-0.007935	0.24506	-0.043945	0.000916	-0.009003
16.791	-0.004425	0.088654	-0.21881	0.016785	0.000763	0.00885	0.1268	0.009766	0.095825	-0.000916	0.010223	0.020752	0.001526	0.13123	0.65124	-0.033112	-0.03891	-0.051727	0.2385	-0.005493	0.035858	0.11993	-0.065308	-0.071869	0.006866	-0.030975	-0.53589	-0.013733	0.4686	-0.028534	0.001831	0.006104
16.792	0.011902	0.10651	-0.23025	0.017853	0.00351	-0.012512	0.14221	0.017395	0.066833	0.003357	0.005493	0.02182	0.18875	0.093536	-0.54382	-0.04425	-0.0354	-0.000763	-0.042572	-0.044403	-0.01358	0.11917	-0.068817	-0.10223	0.017548	-0.031281	-0.3566	-0.013275	-0.027924	0.066833	0.001984	0.005035
16.793	0.010529	0.14145	0.20187	0.012054	0.006104	-0.02655	0.15778	0.010834	0.069733	0.012512	0.050354	0.02533	0.16083	0.033875	-0.33295	-0.023804	-0.041504	-0.012054	-0.41779	-0.018921	-0.046997	0.2002	-0.088348	-0.095978	0.002899	-0.035858	-0.089264	-0.011902	-0.33356	0.12878	0.000458	0.006714
16.794	-0.009308	0.18494	0.11993	0.013123	-0.006104	-0.007629	0.15366	0.000153	-0.015717	-0.030518	0.10498	0.019379	0.20737	0.12756	-0.66254	-0.028839	-0.046844	-0.009003	-0.298	0.067902	-0.013428	0.21515	-0.080261	-0.068359	0.006104	-0.029297	0.022125	-0.006256	-0.26001	0.006714	-0.001526	0.010681
16.795	-0.004578	0.16983	0.093384	-0.003967	0.005646	-0.004578	0.10483	-0.021362	-0.061493	-0.067749	0.1294	0.020294	0.27268	0.22644	-0.44418	-0.0177	-0.033417	-0.050201	-0.12024	0.11246	0.005798	0.21851	-0.060883	-0.0737	0.003052	-0.033569	0.029144	-0.016937	0.021515	0.003815	0.001068	0.006561
